<svg width="40" height="40" viewBox="0 0 40 40" fill="none" xmlns="http://www.w3.org/2000/svg">
<path fill-rule="evenodd" clip-rule="evenodd" d="M13.2762 11.0302C13.7902 7.15951 16.486 4 20 4H20.75V4.75C20.75 7.21998 20.9192 8.59023 21.1072 9.29501C24.2477 6.57175 28.698 6.0706 31.3137 8.68629L31.7492 9.12178L28.9698 13.2762C32.8405 13.7902 36 16.486 36 20V20.6159L31.0971 21.5882C33.4706 24.6886 33.7985 28.8289 31.3137 31.3137L30.8782 31.7492L26.7238 28.9698C26.2098 32.8405 23.514 36 20 36H19.3841L18.4118 31.097C15.3114 33.4706 11.1711 33.7985 8.68629 31.3137L8.2508 30.8782L11.0302 26.7238C7.15951 26.2098 4 23.514 4 20V19.3841L8.90295 18.4118C6.5294 15.3114 6.20151 11.1711 8.68629 8.68629L9.12178 8.2508L13.2762 11.0302ZM13.1955 12.781L9.35054 10.2086C7.83213 12.2726 8.25259 15.7656 10.8518 18.3648C13.0757 20.5887 15.9539 21.2176 18.0316 20.4018C15.2593 19.3878 13.3343 16.2855 13.1955 12.781ZM20.4018 21.9684C19.3878 24.7407 16.2855 26.6657 12.781 26.8045L10.2086 30.6495C12.2726 32.1679 15.7656 31.7474 18.3648 29.1482C20.5887 26.9243 21.2176 24.0461 20.4018 21.9684ZM21.9684 19.5982C24.7407 20.6122 26.6657 23.7145 26.8045 27.219L30.6495 29.7914C32.1679 27.7274 31.7474 24.2344 29.1482 21.6352C26.9243 19.4113 24.0461 18.7824 21.9684 19.5982ZM19.5982 18.0316C20.6122 15.2593 23.7145 13.3343 27.219 13.1955L29.7914 9.35054C27.7274 7.83212 24.2344 8.25259 21.6352 10.8518C19.4113 13.0757 18.7824 15.9539 19.5982 18.0316Z" fill="#5C53E9"/>
</svg>
